<?xml version="1.0" standalone="no"?>
<!DOCTYPE svg PUBLIC "-//W3C//DTD SVG 20010904//EN"
 "http://www.w3.org/TR/2001/REC-SVG-20010904/DTD/svg10.dtd">
<svg version="1.0" xmlns="http://www.w3.org/2000/svg"
 width="397.000000pt" height="778.000000pt" viewBox="0 0 397.000000 778.000000"
 preserveAspectRatio="xMidYMid meet">

<g transform="translate(0.000000,778.000000) scale(0.100000,-0.100000)"
fill="#000000" stroke="none">
<path d="M1527 7718 c-29 -11 -67 -24 -86 -31 -22 -7 -37 -20 -43 -39 -10 -29
-22 -35 -33 -18 -8 13 -37 13 -72 -1 -15 -6 -30 -11 -33 -11 -3 0 -17 -15 -32
-32 -15 -18 -50 -43 -77 -55 -33 -16 -48 -28 -44 -38 3 -7 2 -13 -3 -11 -5 1
-19 -3 -30 -10 -12 -6 -24 -9 -27 -6 -3 3 -14 1 -23 -4 -14 -8 -18 -24 -20
-69 -1 -62 -20 -157 -35 -183 -29 -49 -59 -122 -59 -146 l0 -27 -24 26 c-13
14 -26 32 -29 39 -4 10 -6 10 -6 -1 -1 -7 12 -30 28 -50 27 -34 28 -42 30
-147 3 -139 22 -263 47 -297 19 -26 44 -36 44 -17 0 6 3 10 8 10 7 0 15 -15
47 -92 8 -21 18 -38 21 -38 4 0 3 36 0 80 -7 79 -2 120 14 120 4 0 11 -16 14
-35 11 -55 47 -115 76 -123 34 -10 155 -9 211 1 l46 9 -1 -61 c-1 -43 -5 -60
-13 -57 -19 8 -83 -97 -83 -136 1 -29 2 -31 14 -16 22 30 141 63 246 69 54 3
70 13 63 39 -6 23 -33 27 -33 5 0 -8 -4 -15 -9 -15 -16 0 -63 51 -58 64 8 20
-21 56 -44 56 -27 0 -24 -19 6 -30 26 -10 35 -40 13 -40 -16 0 -68 72 -68 93
0 9 6 22 13 29 7 7 28 59 46 115 19 56 41 105 49 108 20 7 46 -18 72 -69 12
-22 37 -57 56 -77 34 -34 39 -36 108 -38 75 -2 153 11 196 32 53 26 65 53 74
172 2 22 4 48 5 58 0 9 8 17 16 17 25 0 48 -96 51 -210 2 -58 3 -107 4 -109 0
-2 9 4 20 14 11 10 20 31 20 47 0 59 46 179 88 232 20 25 23 36 17 80 -4 29
-19 69 -35 93 -15 23 -33 70 -40 105 -7 35 -19 70 -26 79 -8 8 -14 24 -14 35
0 18 -40 102 -61 128 -30 38 -58 76 -82 114 -15 23 -33 42 -40 42 -6 1 -27 21
-44 45 -42 56 -89 92 -132 98 -31 5 -67 27 -46 27 12 1 -60 47 -95 62 -42 17
-108 16 -163 -4z m-97 -78 c-20 -13 -33 -13 -25 0 3 6 14 10 23 10 15 0 15 -2
2 -10z m-70 -20 c0 -5 -5 -10 -11 -10 -5 0 -7 5 -4 10 3 6 8 10 11 10 2 0 4
-4 4 -10z m467 -241 c51 -12 105 -47 138 -88 27 -33 71 -164 86 -256 6 -42 16
-78 20 -81 5 -3 9 -15 9 -26 0 -20 -4 -20 -62 -14 -134 15 -205 17 -265 6 -57
-11 -63 -15 -63 -37 0 -51 -150 -75 -204 -32 -26 20 -35 21 -134 15 -60 -4
-132 -16 -164 -27 -86 -29 -84 -30 -91 61 -7 93 7 142 51 177 15 12 37 30 49
40 17 13 25 36 33 87 8 53 16 74 33 85 40 29 130 52 199 52 37 0 70 4 73 9 4
6 9 8 13 6 4 -2 23 4 42 13 43 21 170 26 237 10z m-650 -146 c-3 -10 -5 -2 -5
17 0 19 2 27 5 18 2 -10 2 -26 0 -35z m865 -371 c31 -31 31 -194 -1 -231 -37
-43 -206 -68 -276 -41 -66 25 -137 170 -107 217 4 7 28 19 52 28 51 18 72 7
42 -23 -11 -11 -23 -30 -27 -42 -7 -22 -6 -22 61 -16 111 12 114 13 107 49 -3
18 -10 36 -14 42 -6 5 0 14 13 22 26 15 134 11 150 -5z m-250 -84 c-9 -9 -12
-7 -12 12 0 19 3 21 12 12 9 -9 9 -15 0 -24z m-634 -17 c-2 -17 -1 -28 3 -25
4 2 10 0 14 -5 3 -6 12 -8 20 -4 11 4 15 -2 15 -20 0 -14 5 -29 11 -33 19 -11
59 17 59 43 0 13 5 23 10 23 6 0 10 -6 10 -14 0 -19 10 -25 54 -31 20 -2 42
-7 48 -11 27 -17 68 -14 88 6 18 18 20 18 20 3 0 -31 -48 -121 -72 -137 -58
-37 -227 -45 -268 -13 -39 31 -65 176 -40 222 18 34 33 31 28 -4z"/>
<path d="M1925 6800 c-4 -6 -3 -16 3 -22 6 -6 12 -6 17 2 4 6 3 16 -3 22 -6 6
-12 6 -17 -2z"/>
<path d="M1830 6251 c0 -21 -59 -47 -92 -42 -10 1 -68 -5 -129 -14 -102 -15
-112 -15 -135 0 -15 10 -23 22 -20 31 3 9 -1 14 -13 14 -19 0 -31 -18 -31 -49
0 -17 48 -89 83 -124 21 -21 60 -37 90 -37 18 0 19 2 7 10 -17 11 -14 12 70
28 57 10 90 1 60 -18 -13 -8 -13 -10 1 -10 19 0 70 60 116 137 37 60 40 78 17
87 -23 9 -24 8 -24 -13z"/>
<path d="M2100 5981 c0 -6 13 -17 28 -27 63 -37 62 -120 -2 -217 -69 -104
-144 -158 -291 -208 -85 -29 -212 -31 -332 -4 -171 38 -333 158 -350 259 -4
29 0 37 43 76 l49 43 -40 -7 c-43 -8 -71 -28 -80 -56 -6 -18 -78 -58 -147 -81
-21 -7 -40 -21 -43 -30 -6 -16 -63 -44 -73 -35 -9 9 -89 -42 -135 -86 -29 -29
-66 -53 -96 -63 -27 -9 -57 -25 -66 -35 -10 -11 -21 -20 -25 -20 -4 0 -27 -19
-52 -42 -24 -24 -64 -57 -89 -74 -25 -17 -52 -47 -63 -70 -11 -21 -28 -55 -38
-74 -113 -211 -155 -339 -179 -545 -46 -391 -66 -506 -88 -513 -6 -2 -11 -26
-11 -53 0 -58 8 -65 120 -103 70 -24 284 -56 373 -56 41 0 46 -12 20 -50 -9
-13 -33 -57 -53 -97 l-36 -72 19 -32 c27 -41 11 -51 -67 -43 -57 7 -58 6 -47
-15 7 -11 15 -21 19 -21 4 0 13 -12 19 -27 12 -28 19 -39 58 -98 11 -16 20
-35 21 -43 2 -7 14 -25 28 -39 14 -14 31 -43 36 -64 8 -29 14 -37 26 -32 14 5
15 1 9 -28 -4 -19 -12 -37 -17 -40 -6 -4 -3 -29 7 -65 9 -33 18 -74 19 -93 1
-19 7 -36 12 -38 6 -2 36 8 67 22 l57 25 -6 47 c-12 112 -38 232 -61 281 -14
29 -29 84 -33 121 -5 37 -14 80 -20 96 -9 22 -8 44 4 95 8 36 20 99 27 140 12
75 36 140 51 140 4 0 9 -6 9 -12 4 -35 18 87 18 158 1 44 5 84 10 90 5 5 11
20 14 34 2 14 2 7 -1 -15 -9 -62 -8 -448 1 -670 4 -110 8 -277 9 -371 l1 -171
129 -22 c185 -31 226 -57 211 -132 -5 -24 -2 -29 15 -29 11 0 25 -7 33 -16 13
-16 14 -32 4 -149 -2 -38 -6 -107 -8 -153 -3 -79 -5 -84 -39 -120 -20 -20 -41
-47 -47 -59 -9 -18 -21 -23 -49 -23 -20 -1 -64 -6 -97 -13 l-60 -13 -3 -44
c-1 -25 -9 -80 -17 -123 -8 -44 -13 -83 -10 -88 3 -4 7 -61 9 -127 2 -65 9
-128 15 -140 12 -23 36 -143 46 -237 4 -33 17 -100 30 -150 12 -49 32 -148 44
-220 12 -71 33 -188 46 -260 14 -71 25 -146 25 -165 0 -46 47 -132 134 -248
56 -74 86 -145 86 -200 0 -20 9 -62 21 -92 28 -75 59 -189 59 -222 l0 -28 354
0 354 0 0 108 c0 59 2 154 6 212 6 96 -4 289 -20 367 -5 24 -1 40 17 64 18 26
20 35 11 50 -19 30 -14 78 13 136 23 48 29 53 58 53 55 0 97 -55 152 -200 26
-69 55 -147 66 -174 32 -83 105 -395 134 -578 l6 -38 549 0 550 0 0 84 c0 73
-24 275 -60 506 -8 54 -36 236 -55 365 -3 17 -10 66 -16 110 -5 44 -14 94 -19
110 -5 17 -16 62 -26 100 -9 39 -21 74 -25 80 -5 5 -9 27 -9 48 0 21 -6 51
-14 65 -16 30 -31 82 -27 96 1 6 -2 19 -8 30 -23 48 -41 99 -36 107 3 4 0 18
-7 31 -7 13 -14 24 -15 26 -1 2 -11 -1 -22 -8 -26 -14 -27 -6 -1 18 19 18 19
21 5 76 -8 32 -20 66 -25 76 -6 11 -7 48 -4 88 5 51 2 84 -11 128 -10 32 -19
86 -21 119 -1 33 -10 87 -19 120 -9 33 -21 107 -26 165 -5 58 -18 139 -29 180
-10 41 -21 118 -25 170 -3 52 -9 123 -13 158 -6 48 -5 62 5 62 7 0 13 -6 13
-13 0 -11 83 -181 118 -242 17 -30 92 -193 92 -200 0 -3 11 -30 24 -59 14 -30
28 -70 31 -90 4 -20 11 -36 15 -36 10 0 30 -47 30 -70 0 -11 4 -20 9 -20 21 0
22 -35 1 -52 -20 -16 -20 -21 -11 -74 6 -32 11 -59 11 -61 0 -2 18 -10 40 -19
44 -18 44 -18 29 -63 -8 -21 -8 -48 -1 -86 7 -42 6 -59 -4 -73 -23 -30 -11
-180 20 -242 8 -16 17 -47 21 -70 4 -22 11 -38 15 -35 5 3 4 19 -2 36 -7 20
-7 42 0 69 5 22 6 40 2 40 -5 0 -5 13 0 28 5 18 3 36 -4 48 -12 20 -18 197 -7
190 8 -5 -3 117 -12 131 -4 5 26 15 70 21 42 7 78 13 79 15 2 1 -3 29 -9 61
l-12 58 -58 1 c-68 2 -79 14 -74 72 3 27 -2 50 -15 73 -11 18 -17 39 -14 47 3
8 1 17 -4 20 -6 4 -10 21 -10 40 0 36 -18 85 -31 85 -11 0 -49 87 -49 111 0
18 -30 95 -51 129 -4 8 -19 35 -33 60 -13 25 -31 59 -40 75 -9 17 -16 35 -16
41 0 6 -6 17 -14 23 -8 7 -18 27 -21 44 -4 18 -14 42 -22 55 -19 30 -54 142
-48 152 8 13 -16 71 -57 138 l-38 64 1 133 c0 74 -2 138 -5 143 -3 6 -8 79
-11 163 -3 85 -8 173 -10 196 l-4 41 127 42 c125 42 212 83 212 101 0 5 5 9
11 9 5 0 7 -5 3 -11 -4 -7 -3 -10 2 -7 5 2 28 13 51 24 52 23 61 40 72 129 8
63 7 72 -10 87 -21 18 -26 34 -7 22 8 -5 9 -2 5 10 -4 10 -7 19 -7 22 0 2 -7
1 -16 -3 -13 -5 -14 0 -9 31 4 20 3 42 -3 49 -5 6 -13 27 -17 45 -5 23 -11 32
-21 28 -19 -7 -28 11 -30 64 -1 25 -3 45 -4 45 -1 0 -3 15 -5 33 -2 30 -15 59
-15 34 0 -7 -4 -12 -10 -12 -5 0 -10 10 -10 23 0 13 -4 27 -9 33 -6 5 -14 27
-19 49 -6 22 -22 72 -36 110 -15 39 -29 85 -31 103 -3 18 -12 47 -21 64 -55
106 -196 293 -235 312 -11 5 -19 12 -19 16 0 4 -35 22 -77 41 -43 18 -87 41
-97 51 -11 10 -32 18 -46 18 -14 0 -45 9 -68 20 -22 11 -45 20 -50 20 -14 0
-75 31 -95 48 -10 9 -40 17 -67 18 -29 1 -63 11 -83 23 -19 12 -50 21 -69 21
-22 0 -42 7 -53 20 -10 12 -31 20 -49 20 -17 0 -40 7 -50 15 -23 17 -36 19
-36 6z m565 -741 c11 -17 -4 -46 -30 -58 -31 -14 -62 -64 -70 -113 -4 -20 -15
-45 -25 -54 -19 -17 -19 -18 -1 -54 11 -20 27 -63 36 -94 9 -32 25 -65 35 -75
39 -38 68 -131 43 -139 -13 -5 -53 53 -53 75 0 8 -23 34 -50 59 -28 25 -65 66
-82 92 -46 66 -65 81 -110 81 -61 0 -129 20 -172 51 -36 26 -41 27 -56 14 -20
-18 -51 -19 -104 -4 -33 9 -41 8 -48 -5 -10 -18 -34 -12 -42 11 -9 23 12 42
55 49 45 7 52 24 11 24 -15 0 -37 7 -49 15 -20 14 -21 19 -10 43 27 60 56 74
109 53 13 -5 46 -15 73 -22 28 -7 85 -37 130 -68 90 -61 169 -101 202 -101 23
0 83 45 83 62 0 32 36 125 56 145 24 24 58 30 69 13z m-231 -545 c13 -77 26
-158 28 -180 l3 -40 -51 -3 -52 -3 -8 47 c-13 69 -36 71 -33 3 l3 -54 -49 -8
c-33 -5 -50 -4 -55 3 -8 12 -52 319 -52 357 0 13 2 26 5 29 2 3 49 8 103 13
83 6 102 5 116 -8 11 -11 25 -64 42 -156z m-314 123 c9 -22 41 -202 55 -314 4
-29 3 -54 -2 -57 -4 -3 -28 -7 -52 -8 -53 -5 -51 -10 -76 181 -10 74 -23 141
-28 148 -24 30 -26 -12 -7 -143 11 -77 20 -154 20 -171 0 -30 -2 -32 -47 -38
-26 -3 -50 -3 -54 1 -3 5 -12 55 -18 113 -18 156 -31 220 -47 220 -17 0 -18
15 7 -178 12 -89 20 -165 18 -167 -3 -2 -27 -7 -55 -10 l-50 -7 -22 173 c-26
200 -26 215 -9 226 13 8 282 51 330 52 19 1 30 -5 37 -21z m-420 -47 c0 -4 9
-75 20 -156 22 -161 25 -221 11 -229 -15 -10 -202 -35 -216 -30 -17 7 -20 21
-45 199 -28 200 -29 191 27 199 26 3 50 3 54 -1 4 -5 15 -70 24 -147 18 -148
29 -191 46 -181 11 8 7 74 -17 235 -7 52 -10 98 -6 101 17 16 102 25 102 10z
m-293 -53 c6 -7 16 -68 23 -136 12 -117 11 -124 -6 -137 -11 -8 -31 -15 -46
-15 -15 0 -39 -5 -54 -10 -24 -9 -26 -14 -21 -49 2 -21 2 -43 -2 -48 -8 -13
-89 -24 -96 -13 -6 10 -38 380 -33 385 6 7 159 33 194 34 17 1 36 -5 41 -11z
m-493 -143 c40 -17 56 -46 56 -99 0 -19 11 -59 25 -91 14 -32 25 -65 23 -74
-2 -9 -17 17 -34 58 -29 73 -54 102 -54 64 0 -37 49 -187 64 -195 21 -12 30
-84 21 -173 -7 -77 -25 -95 -25 -25 0 21 -6 45 -14 53 -8 8 -19 30 -24 48 -9
30 -10 31 -12 9 -1 -22 -2 -21 -13 10 -9 24 -18 34 -30 32 -13 -2 -17 4 -17
30 0 18 -4 48 -9 65 -6 20 -6 35 0 38 5 4 9 -1 9 -9 0 -30 18 -16 24 18 9 47
-3 116 -20 116 -8 0 -14 5 -14 11 0 5 4 8 9 4 5 -3 13 0 17 6 4 8 3 9 -4 5 -7
-4 -12 -3 -12 3 0 5 -8 8 -17 7 -16 -3 -18 -14 -15 -87 2 -46 7 -98 11 -115 8
-29 7 -31 -15 -31 -24 0 -24 0 -24 110 l0 111 -20 -22 c-12 -12 -25 -22 -30
-22 -6 0 -10 -10 -10 -22 0 -13 -5 -30 -11 -38 -8 -11 -9 -1 -4 35 4 28 10 55
13 60 4 6 7 17 9 25 1 8 13 24 26 36 14 12 30 31 36 43 14 25 35 26 85 6z
m118 -1087 c-3 -164 -7 -191 -32 -213 -23 -21 -22 -24 -20 79 1 46 -2 66 -9
61 -6 -3 -11 -21 -11 -40 0 -41 -20 -58 -21 -18 l-1 28 -7 -29 c-7 -35 -23
-43 -41 -21 -10 12 -10 36 -2 116 10 97 20 129 29 101 4 -9 9 -10 18 -2 9 7
16 6 26 -7 11 -13 11 -17 2 -20 -7 -3 -12 -17 -12 -31 2 -24 2 -25 6 -4 2 12
8 20 13 17 4 -3 6 -14 3 -25 -3 -11 0 -20 6 -20 7 0 11 25 11 70 0 55 3 71 18
79 9 6 19 11 22 11 3 0 4 -60 2 -132z m-207 79 c16 -13 17 -24 11 -113 -4 -54
-7 -116 -6 -138 1 -56 -8 -80 -26 -65 -8 6 -14 8 -14 3 0 -4 -5 -3 -12 4 -7 7
-12 64 -13 167 -1 152 -1 155 20 155 12 0 29 -6 40 -13z m125 -297 c0 -27 -3
-30 -29 -30 -33 0 -44 11 -35 34 5 12 10 14 19 6 10 -8 17 -7 27 4 18 21 18
20 18 -14z m158 -126 c17 -7 41 -28 52 -46 10 -18 33 -41 50 -51 36 -21 39
-50 8 -71 -33 -24 -127 -19 -112 5 3 5 0 9 -6 9 -8 0 -10 9 -6 25 4 14 2 25
-4 25 -5 0 -10 9 -10 19 0 22 -20 40 -20 19 -1 -25 -29 37 -30 65 0 31 5 31
78 1z m2049 -1425 c-8 -5 -39 -10 -68 -12 -30 -3 -40 -2 -24 0 17 2 34 8 38
12 4 4 21 8 38 8 21 0 26 -3 16 -8z m-154 -26 c-13 -2 -33 -2 -45 0 -13 2 -3
4 22 4 25 0 35 -2 23 -4z m-1973 -230 c14 -18 17 -29 10 -31 -20 -7 -60 20
-60 40 0 27 25 22 50 -9z m1961 -442 c79 -44 99 -69 110 -137 6 -33 12 -72 15
-89 6 -33 -16 -72 -34 -61 -12 7 -32 71 -38 115 -3 28 -23 69 -41 89 -7 7 -13
17 -13 22 0 23 -58 70 -90 74 -54 6 -57 7 -30 15 38 11 62 6 121 -28z"/>
<path d="M2280 4793 c0 -56 25 -173 37 -173 16 0 16 52 0 129 -11 52 -37 83
-37 44z"/>
<path d="M1285 4578 c4 -51 11 -97 17 -103 15 -16 29 16 24 55 -3 19 -8 59
-12 88 -4 36 -10 52 -21 52 -12 0 -13 -14 -8 -92z"/>
<path d="M792 3450 c4 -60 19 -61 23 -3 2 29 -1 43 -11 47 -12 5 -14 -4 -12
-44z"/>
<path d="M1562 5918 c2 -14 11 -24 23 -26 19 -3 19 -2 3 11 -10 8 -18 17 -18
20 0 3 8 8 18 10 12 3 11 5 -6 6 -19 1 -23 -3 -20 -21z"/>
<path d="M1283 5893 c9 -9 19 -14 23 -11 10 10 -6 28 -24 28 -15 0 -15 -1 1
-17z"/>
<path d="M1350 5880 c0 -22 -16 -27 -23 -7 -4 8 -6 6 -6 -4 -1 -20 36 -69 53
-69 6 0 40 -22 73 -49 37 -30 77 -53 98 -57 36 -6 37 -6 26 15 -10 18 -28 26
-53 22 -4 0 -5 6 -2 14 4 10 0 15 -11 15 -9 0 -13 5 -10 10 3 6 -4 10 -17 10
-15 0 -36 16 -60 46 -21 26 -38 50 -38 54 0 4 -7 10 -15 14 -10 4 -15 -1 -15
-14z"/>
<path d="M1715 5700 c-18 -8 -17 -9 7 -9 15 -1 30 4 33 9 7 12 -12 12 -40 0z"/>
<path d="M486 3149 c-12 -39 -13 -59 -4 -53 7 5 9 -3 4 -22 -18 -82 -19 -104
-2 -104 9 0 16 7 16 15 0 7 7 18 15 22 13 8 13 17 1 77 -15 72 -23 88 -30 65z"/>
<path d="M540 3100 c0 -5 5 -10 11 -10 5 0 7 5 4 10 -3 6 -8 10 -11 10 -2 0
-4 -4 -4 -10z"/>
<path d="M853 2843 c9 -2 25 -2 35 0 9 3 1 5 -18 5 -19 0 -27 -2 -17 -5z"/>
<path d="M3656 2263 c21 -72 24 -77 33 -67 14 14 25 57 13 50 -5 -3 -13 10
-16 29 -5 25 -12 35 -25 35 -18 0 -18 -3 -5 -47z"/>
<path d="M3664 1654 c-6 -35 -5 -51 16 -214 7 -47 12 -109 13 -139 2 -51 4
-54 30 -58 18 -2 29 2 33 12 3 8 17 15 30 15 25 0 25 -2 30 90 1 25 6 70 11
100 10 68 -4 116 -40 138 -15 9 -27 20 -27 25 0 4 -4 5 -10 2 -5 -3 -10 0 -10
8 0 12 -51 57 -64 57 -3 0 -8 -16 -12 -36z"/>
<path d="M3535 1511 c3 -18 5 -45 5 -60 1 -21 2 -23 10 -10 6 11 5 31 -5 60
-13 38 -14 39 -10 10z"/>
<path d="M3568 1351 c22 -81 35 -88 28 -16 -3 33 -5 61 -6 61 0 1 -9 4 -19 7
-18 4 -18 2 -3 -52z"/>
</g>
</svg>
